<?xml version="1.0" standalone="no"?>
<!DOCTYPE svg PUBLIC "-//W3C//DTD SVG 20010904//EN"
 "http://www.w3.org/TR/2001/REC-SVG-20010904/DTD/svg10.dtd">
<svg version="1.0" xmlns="http://www.w3.org/2000/svg"
 width="700.000000pt" height="700.000000pt" viewBox="0 0 700.000000 700.000000"
 preserveAspectRatio="xMidYMid meet">
<metadata>
Created by potrace 1.14, written by Peter Selinger 2001-2017
</metadata>
<g transform="translate(0.000000,700.000000) scale(0.100000,-0.100000)"
fill="#000000" stroke="none">
<path d="M3269 6996 c-2 -2 -41 -6 -86 -10 -82 -6 -352 -44 -364 -52 -4 -2
-24 -6 -45 -9 -123 -19 -409 -106 -601 -183 -560 -227 -1090 -632 -1460 -1118
-395 -519 -640 -1150 -700 -1806 -10 -104 -10 -502 -1 -623 9 -121 34 -286 63
-422 21 -95 34 -148 72 -288 15 -53 85 -250 118 -330 75 -182 196 -410 308
-580 75 -113 151 -216 241 -325 78 -96 320 -340 411 -415 33 -28 65 -54 72
-60 121 -104 398 -285 588 -384 268 -141 658 -277 932 -325 15 -3 51 -10 78
-15 28 -5 77 -13 110 -16 33 -4 63 -9 66 -11 30 -17 589 -26 749 -11 119 11
262 31 335 47 22 5 56 12 75 15 220 38 576 163 835 292 688 342 1234 894 1582
1595 29 59 53 109 53 112 0 3 13 34 29 68 83 182 192 563 226 793 9 61 18 121
21 135 26 164 26 690 -1 865 -78 510 -178 822 -393 1230 -91 172 -273 443
-382 569 -14 17 -43 50 -64 75 -81 93 -325 329 -421 406 -180 145 -350 259
-540 362 -100 54 -328 163 -341 163 -3 0 -20 6 -37 14 -123 55 -444 150 -607
179 -14 3 -43 8 -65 12 -22 4 -49 9 -60 11 -11 2 -58 9 -105 14 -47 6 -98 13
-115 16 -34 6 -571 15 -576 10z"/>
</g>
</svg>
